<svg width="170" height="37" viewBox="0 0 170 37" fill="none" xmlns="http://www.w3.org/2000/svg">
<g id="Ativo 121 1">
<g id="Camada 2">
<g id="Camada 1">
<path id="Vector" d="M37.288 23.3159L36.1716 23.626C34.6761 24.0236 33.2386 24.6112 31.8949 25.3745C30.5993 26.1304 29.4058 27.0466 28.343 28.1011C27.2704 29.1537 26.3408 30.3407 25.5778 31.632C24.8086 32.9632 24.2152 34.387 23.8121 35.8685L23.503 36.9864L19.9236 33.4588L19.9854 33.118C20.2886 31.5771 20.8482 30.097 21.6411 28.7384C23.4089 25.7282 25.9335 23.2246 28.9682 21.472C30.3353 20.6865 31.8248 20.1324 33.3755 19.8326L33.719 19.7645L37.288 23.3159Z" fill="#00FF99"/>
<path id="Vector_2" d="M37.2881 13.6807L33.7225 17.2253L33.379 17.1572C31.8303 16.8581 30.343 16.3039 28.9786 15.5178C27.4665 14.6549 26.0798 13.592 24.8565 12.3583C23.6143 11.1444 22.5442 9.76846 21.6756 8.26842C20.8856 6.91085 20.3262 5.4335 20.0198 3.89563L19.958 3.55481L23.503 0L23.8122 1.11109C24.2154 2.59462 24.8088 4.02069 25.5778 5.35437C26.3417 6.64412 27.2712 7.82991 28.3431 8.88191C29.403 9.93961 30.597 10.8561 31.895 11.6085C33.2391 12.3709 34.6765 12.9585 36.1717 13.3569L37.2881 13.6807Z" fill="#00FF99"/>
<path id="Vector_3" d="M17.3645 33.4554L13.792 37L13.4794 35.8821C13.0768 34.4 12.4846 32.9751 11.7171 31.6422C10.9592 30.3542 10.0354 29.1695 8.96906 28.1181C7.90941 27.0587 6.71407 26.142 5.41373 25.3915C4.06701 24.6205 2.6247 24.027 1.12328 23.626L0 23.3159L3.57251 19.7679L3.91602 19.836C5.46739 20.1353 6.9579 20.6882 8.3267 21.472C9.83868 22.3363 11.2254 23.4003 12.4488 24.6349C13.6933 25.8469 14.7636 27.2231 15.6297 28.7248C16.4216 30.0803 16.9811 31.5568 17.2855 33.0942L17.3645 33.4554Z" fill="#00FF99"/>
<path id="Vector_4" d="M17.3645 3.54118L17.2923 3.882C16.9908 5.41804 16.4335 6.89354 15.6435 8.24797C14.7723 9.74629 13.7025 11.1219 12.4626 12.3379C11.2387 13.57 9.85198 14.6317 8.34044 15.4939C6.97257 16.2805 5.4818 16.8345 3.92976 17.1333L3.58625 17.2015L0 13.6807L1.11984 13.3706C2.6154 12.9731 4.05289 12.3854 5.39655 11.6221C6.69657 10.8697 7.89279 9.95316 8.95532 8.89554C10.0179 7.84089 10.9413 6.65672 11.7034 5.37141C12.4747 4.03159 13.0715 2.60004 13.4794 1.11109L13.7954 0L17.3645 3.54118Z" fill="#00FF99"/>
<path id="Vector_5" d="M61.7255 22.4945C61.746 23.5259 61.4488 24.539 60.8736 25.3983C60.2638 26.2676 59.4147 26.9443 58.4278 27.3478C57.2125 27.8361 55.9082 28.0683 54.5976 28.0295C53.305 28.0537 52.0204 27.8219 50.819 27.3478C49.8035 26.9449 48.9268 26.2596 48.2942 25.3745C47.6661 24.4363 47.3249 23.3378 47.3118 22.2116V22.0616H50.874V22.1946C50.899 22.7431 51.0946 23.2706 51.4339 23.7044C51.7793 24.1118 52.2273 24.4211 52.7324 24.6008C53.3206 24.8098 53.9419 24.9126 54.5667 24.9041C55.1984 24.9172 55.8267 24.8108 56.4182 24.5906C56.899 24.4148 57.3244 24.1161 57.6514 23.7249C57.9416 23.3601 58.0979 22.9081 58.0946 22.4434C58.1029 22.0529 57.9659 21.6731 57.7098 21.3766C57.4043 21.0477 57.0272 20.7925 56.6072 20.6302C56.0516 20.3961 55.477 20.2091 54.8896 20.0712L52.7942 19.5327C51.4485 19.2377 50.1953 18.6225 49.1427 17.74C48.6902 17.3296 48.333 16.8266 48.0958 16.2658C47.8585 15.705 47.7469 15.0997 47.7686 14.4919C47.7577 13.4485 48.088 12.4296 48.7099 11.5881C49.3444 10.7328 50.1985 10.0619 51.1831 9.64536C52.2949 9.17726 53.4931 8.94507 54.7007 8.96371C55.9033 8.93824 57.0973 9.17075 58.2011 9.64536C59.1515 10.0603 59.9724 10.7206 60.5782 11.5574C61.1664 12.3805 61.4843 13.3636 61.4885 14.3726V14.5192H57.9915V14.3897C57.9661 14.0498 57.8636 13.72 57.6917 13.4249C57.5198 13.1298 57.2829 12.8771 56.9988 12.6855C56.3068 12.2422 55.4926 12.0242 54.6698 12.0618C54.0829 12.0481 53.4991 12.15 52.9522 12.3617C52.5248 12.526 52.1506 12.803 51.8702 13.1627C51.6257 13.4926 51.4945 13.8916 51.4957 14.301C51.4881 14.6212 51.5727 14.9369 51.7396 15.211C51.9149 15.4814 52.1498 15.7087 52.4266 15.8757C52.7356 16.0702 53.0665 16.228 53.4125 16.346C53.7761 16.4787 54.1465 16.5925 54.5221 16.6868L56.2396 17.1197C56.9347 17.2769 57.6142 17.4959 58.2698 17.774C58.9058 18.0415 59.5002 18.3973 60.0354 18.8306C60.5597 19.2541 60.9881 19.7825 61.2927 20.3814C61.599 21.0433 61.7471 21.7664 61.7255 22.4945Z" fill="#04142C"/>
<path id="Vector_6" d="M76.9465 16.8708C76.4945 15.8743 75.7651 15.0265 74.8442 14.4271C73.9548 13.8758 72.9249 13.5884 71.8762 13.5989C71.1651 13.5749 70.4585 13.7198 69.8152 14.0215C69.3195 14.2693 68.8818 14.6176 68.5305 15.044C68.2918 15.3348 68.0781 15.6449 67.8915 15.9711V13.7898H64.3843V32.893H67.9259V25.7732C68.1081 26.0665 68.3125 26.3456 68.5373 26.6082C68.8967 27.0258 69.3387 27.3656 69.8358 27.6068C70.473 27.8961 71.169 28.0349 71.8694 28.0124C72.9284 28.0267 73.9681 27.7303 74.8579 27.1604C75.7757 26.5464 76.4998 25.6874 76.9465 24.6826C77.4813 23.4553 77.7392 22.1269 77.7022 20.7903C77.7469 19.4444 77.4888 18.1054 76.9465 16.8708ZM70.9797 25.0506C70.3761 25.0767 69.7819 24.8962 69.2965 24.5394C68.8094 24.1496 68.4418 23.6326 68.235 23.0466C67.9738 22.3161 67.8481 21.5448 67.864 20.7699C67.8488 20.0023 67.9721 19.2381 68.2282 18.5136C68.4283 17.9326 68.7933 17.4213 69.2793 17.0413C69.7667 16.6876 70.359 16.5053 70.9625 16.5232C71.5789 16.5042 72.1839 16.6915 72.6801 17.0549C73.1633 17.4446 73.5274 17.9604 73.7312 18.5443C73.9753 19.256 74.0916 20.0047 74.0747 20.7562C74.0929 21.5168 73.9766 22.2747 73.7312 22.9955C73.5252 23.5867 73.1591 24.1102 72.6732 24.5087C72.1847 24.8844 71.5803 25.0806 70.9625 25.0643L70.9797 25.0506Z" fill="#04142C"/>
<path id="Vector_7" d="M91.3463 16.1074C91.0214 15.5036 90.549 14.9903 89.9723 14.6146C89.4048 14.2509 88.7785 13.9869 88.1207 13.8341C87.4589 13.6783 86.7811 13.5993 86.1009 13.5989C85.1863 13.5899 84.2768 13.7351 83.4112 14.0284C82.634 14.3025 81.9293 14.7476 81.3501 15.3303C80.7686 15.9359 80.3493 16.6765 80.1307 17.4843L80.0826 17.6445L83.4043 18.1115L83.4421 17.999C83.6123 17.5334 83.923 17.1312 84.3318 16.847C84.8617 16.4959 85.4921 16.3249 86.1284 16.3596C86.7205 16.3197 87.3058 16.5036 87.7669 16.8743C87.9574 17.0646 88.1053 17.2925 88.2012 17.5432C88.2971 17.7939 88.3387 18.0619 88.3234 18.3296V18.3807C88.3315 18.4909 88.3096 18.6012 88.2601 18.7001C88.2105 18.799 88.1351 18.8829 88.0417 18.9431C87.7214 19.1093 87.3712 19.2112 87.0112 19.243C86.5131 19.3112 85.8501 19.3861 85.0497 19.4714C84.3865 19.54 83.7289 19.6539 83.0814 19.8122C82.4769 19.9636 81.8982 20.2024 81.3639 20.5211C80.8541 20.8317 80.4322 21.2656 80.1375 21.7822C79.8182 22.3964 79.6633 23.0818 79.6875 23.7726C79.6604 24.5979 79.8804 25.4127 80.3196 26.114C80.7386 26.7501 81.3355 27.2512 82.0372 27.5557C82.7954 27.883 83.615 28.0468 84.4417 28.0363C85.0996 28.049 85.7546 27.9451 86.3757 27.7296C86.8828 27.5445 87.3492 27.2645 87.7497 26.9048C88.0123 26.6617 88.2431 26.3869 88.4368 26.0868V27.7602H91.8547V18.4523C91.8845 17.6409 91.7097 16.8349 91.3463 16.1074ZM88.3303 21.3425V22.7058C88.3327 23.1717 88.2055 23.6293 87.9627 24.0282C87.7053 24.4417 87.3412 24.7794 86.9081 25.0064C86.4052 25.2633 85.8454 25.391 85.2799 25.3779C84.7184 25.4005 84.1638 25.2492 83.6929 24.945C83.4947 24.8104 83.3355 24.6266 83.2312 24.4119C83.127 24.1972 83.0812 23.9591 83.0986 23.7214C83.0834 23.3864 83.188 23.0569 83.394 22.791C83.6242 22.5305 83.9174 22.3323 84.2459 22.215C84.6554 22.0603 85.0821 21.955 85.5169 21.9014L86.2795 21.7958L87.1727 21.6526C87.4749 21.5947 87.7566 21.5333 88.0039 21.4618C88.1152 21.4289 88.2242 21.389 88.3303 21.3425Z" fill="#04142C"/>
<path id="Vector_8" d="M103.139 13.6943V16.9833L102.947 16.9186C102.744 16.8588 102.536 16.8178 102.325 16.7959C101.524 16.6483 100.697 16.7556 99.9616 17.1026C99.5257 17.3318 99.161 17.6747 98.907 18.0944C98.6462 18.5401 98.5131 19.0481 98.5223 19.5634V27.7602H94.9807V13.7864H98.4158V15.7802C98.6662 15.1685 99.0867 14.6401 99.6284 14.2567C100.268 13.805 101.035 13.5663 101.82 13.5751C102.002 13.5751 102.208 13.5751 102.438 13.5989C102.632 13.6119 102.824 13.6346 103.015 13.6671L103.139 13.6943Z" fill="#04142C"/>
<path id="Vector_9" d="M118.123 27.7602H113.874L109.711 21.9798L108.687 23.0671V27.7602H105.142V9.21252H108.687L108.701 19.2805L113.661 13.7762H117.852L112.362 19.8429L118.123 27.7602Z" fill="#04142C"/>
<path id="Vector_10" d="M139.64 20.1973C139.272 19.5542 138.747 19.0137 138.112 18.6261C137.612 18.3212 137.054 18.1216 136.473 18.0399C136.962 17.8956 137.426 17.6772 137.847 17.3923C138.352 17.0533 138.766 16.597 139.053 16.0631C139.366 15.4525 139.52 14.7744 139.503 14.0897C139.515 13.2095 139.277 12.3438 138.816 11.5915C138.32 10.8189 137.602 10.2112 136.755 9.84645C135.699 9.39302 134.556 9.17321 133.406 9.20229H126.216V27.7602H133.808C135.032 27.7933 136.249 27.5606 137.373 27.0786C138.257 26.6935 139.005 26.0549 139.52 25.2449C140 24.4544 140.247 23.5466 140.235 22.624C140.255 21.7774 140.05 20.9404 139.64 20.1973ZM135.518 15.8245C135.262 16.1974 134.904 16.4914 134.488 16.6732C134.018 16.8815 133.508 16.9862 132.994 16.9799H129.847V12.2288H133.069C134.01 12.2288 134.725 12.4504 135.195 12.8798C135.426 13.0855 135.609 13.3389 135.731 13.6221C135.852 13.9053 135.91 14.2115 135.9 14.5192C135.909 14.9831 135.775 15.4388 135.515 15.8245H135.518ZM129.847 19.6452H133.375C133.969 19.6286 134.558 19.7536 135.092 20.0099C135.544 20.2243 135.923 20.5634 136.185 20.9867C136.448 21.4099 136.581 21.8991 136.569 22.3956C136.58 22.7128 136.518 23.0282 136.387 23.3176C136.256 23.6071 136.06 23.863 135.814 24.0657C135.309 24.5019 134.46 24.7201 133.292 24.7201H129.847V19.6452Z" fill="#04142C"/>
<path id="Vector_11" d="M154.923 17.0413C154.402 15.9888 153.586 15.1074 152.574 14.5021C151.475 13.9094 150.245 13.5989 148.994 13.5989C147.744 13.5989 146.513 13.9094 145.415 14.5021C144.402 15.1078 143.585 15.989 143.062 17.0413C142.49 18.2201 142.206 19.5163 142.234 20.8244C142.206 22.1293 142.49 23.4222 143.062 24.5974C143.588 25.6451 144.404 26.5223 145.415 27.1263C146.513 27.719 147.744 28.0295 148.994 28.0295C150.245 28.0295 151.475 27.719 152.574 27.1263C153.584 26.5229 154.399 25.6454 154.923 24.5974C155.496 23.4222 155.779 22.1293 155.751 20.8244C155.779 19.5163 155.496 18.2201 154.923 17.0413ZM150.753 24.5837C150.259 24.9718 149.642 25.1735 149.012 25.1529C148.372 25.1761 147.744 24.9745 147.239 24.5837C146.748 24.1727 146.38 23.6348 146.178 23.0296C145.709 21.5893 145.709 20.0391 146.178 18.5988C146.38 17.9907 146.747 17.4495 147.239 17.0345C147.742 16.6399 148.371 16.4357 149.012 16.4585C149.643 16.4386 150.26 16.6428 150.753 17.0345C151.243 17.4499 151.608 17.9912 151.808 18.5988C152.28 20.0386 152.28 21.5898 151.808 23.0296C151.607 23.6342 151.242 24.1721 150.753 24.5837Z" fill="#04142C"/>
<path id="Vector_12" d="M170 27.7602H166.235L163.398 22.9682L160.591 27.7602H156.795L161.089 20.7665L156.909 13.7762H160.701L163.398 18.6773L166.146 13.7762H169.928L165.679 20.7665L170 27.7602Z" fill="#04142C"/>
</g>
</g>
</g>
</svg>
